<svg width="187" height="39" viewBox="0 0 187 39" fill="none" xmlns="http://www.w3.org/2000/svg">
<path d="M21.9361 34.9846L21.9995 20.3549C22.0122 18.0803 21.6568 16.2452 20.9078 14.8236C20.1715 13.402 19.0417 12.368 17.5057 11.7089C15.9697 11.0498 14.0274 10.7138 11.6535 10.7138C10.2825 10.7138 8.96231 10.8042 7.68017 10.9852C6.39802 11.1661 5.23013 11.3858 4.1511 11.6572C3.07207 11.9286 2.15806 12.2129 1.38369 12.5102L3.44021 18.4293C4.07494 18.1837 4.77313 17.9511 5.57288 17.7185C6.37263 17.4988 7.18508 17.3307 8.03561 17.1886C8.88614 17.0593 9.71127 16.9818 10.5237 16.9818C11.6281 16.9818 12.4406 17.1886 12.9611 17.5763C13.4816 17.9511 13.7481 18.481 13.7354 19.1659V19.8121C12.2629 19.8897 10.8411 20.0318 9.48278 20.2386C8.12447 20.4454 6.8804 20.7426 5.72521 21.1304C4.5827 21.531 3.57984 22.0221 2.72931 22.6553C1.87878 23.2886 1.20598 24.064 0.736282 24.9945C0.266586 25.9121 0.0126945 27.0236 0 28.303C0 31.0558 0.964783 33.1494 2.95782 34.5969C4.93816 36.0314 7.94675 36.7681 11.9836 36.7939C13.38 36.7939 14.7002 36.7164 15.9697 36.5484C17.2518 36.3804 18.3943 36.1606 19.4226 35.8892C20.4508 35.6178 21.2887 35.3206 21.9234 34.9975L21.9361 34.9846ZM13.6973 30.4742C13.5069 30.5388 13.2277 30.5905 12.8722 30.6163C12.5168 30.6422 12.1359 30.6551 11.7424 30.6551C11.0442 30.6551 10.4222 30.5517 9.88899 30.3708C9.35583 30.1898 8.93692 29.8926 8.63225 29.5178C8.32759 29.1431 8.17525 28.6648 8.17525 28.0962C8.17525 27.3854 8.40376 26.8297 8.83537 26.442C9.26698 26.0543 9.88901 25.7699 10.7141 25.6019C11.5393 25.4339 12.5421 25.3435 13.7227 25.3047L13.6973 30.4742ZM49.1911 23.0172C49.1911 21.1303 48.9372 19.4373 48.4295 17.964C47.9217 16.4907 47.1981 15.25 46.2587 14.229C45.3193 13.2081 44.2022 12.4456 42.8947 11.9157C41.5871 11.3729 40.14 11.1144 38.5405 11.1015C38.185 11.1015 37.8042 11.1274 37.3726 11.1791C36.9536 11.2308 36.5347 11.3083 36.1285 11.3987C35.7223 11.4892 35.3795 11.6055 35.0876 11.7218L35.1383 0.0388091L26.3411 0L26.1887 34.9846C26.8869 35.3206 27.7501 35.6179 28.7657 35.9022C29.7813 36.1865 30.8857 36.4191 32.0917 36.5871C33.2976 36.7551 34.5544 36.8456 35.8492 36.8715C40.2542 36.8844 43.5675 35.747 45.8144 33.4208C48.0486 31.1074 49.1784 27.631 49.2038 22.9914L49.1911 23.0172ZM40.3939 23.7668C40.3939 25.0074 40.2542 26.0931 39.9622 27.0236C39.683 27.9541 39.2513 28.6778 38.6801 29.2077C38.1088 29.7246 37.3853 29.9831 36.5093 29.9831C36.2047 29.9831 35.9254 29.9573 35.6588 29.9314C35.3922 29.8926 35.1891 29.8409 35.0114 29.8021L35.0622 18.1191C35.2653 18.0286 35.5065 17.9511 35.7858 17.8865C36.065 17.8219 36.357 17.796 36.649 17.796C37.893 17.8089 38.8324 18.3388 39.4671 19.3598C40.0892 20.3937 40.4066 21.8541 40.3939 23.7668ZM74.5801 35.2301L74.6816 11.5926L65.8844 11.5538L65.8082 29.5566C65.6305 29.6212 65.3639 29.6729 65.0465 29.7246C64.7165 29.7634 64.361 29.7763 63.9421 29.7763C63.1297 29.7763 62.5076 29.5953 62.0887 29.2335C61.6698 28.8587 61.454 28.2901 61.4667 27.5017L61.5302 11.528L52.7329 11.4892L52.6694 27.2303C52.6694 29.5437 53.063 31.4176 53.9008 32.8651C54.7386 34.2996 55.9827 35.3464 57.6457 36.0184C59.3086 36.6905 61.4032 37.0265 63.9167 37.0265C65.2877 37.0265 66.6333 36.9619 67.9663 36.8069C69.2992 36.6647 70.5306 36.4449 71.6731 36.1735C72.8029 35.9021 73.7803 35.579 74.5801 35.2172V35.2301ZM96.4781 35.4627L93.8376 28.8458C93.4949 29.1172 93.076 29.3239 92.5682 29.4661C92.0731 29.5953 91.5526 29.6729 90.9687 29.66C90.1816 29.66 89.5088 29.3886 88.9503 28.8975C88.3917 28.4064 87.9601 27.7343 87.6808 26.8814C87.3888 26.0284 87.2365 25.0591 87.2365 23.9735C87.2365 22.8879 87.3761 21.9186 87.6554 21.0657C87.9347 20.2127 88.3536 19.5407 88.9122 19.0496C89.4707 18.5585 90.1689 18.313 91.0194 18.313C91.5907 18.313 92.1239 18.3905 92.6063 18.5327C93.1013 18.6748 93.5203 18.8816 93.863 19.1659L96.5669 12.8075C96.0211 12.4327 95.4117 12.1225 94.7516 11.864C94.1042 11.6055 93.3552 11.4117 92.5174 11.2825C91.6669 11.1532 90.7021 11.0757 89.585 11.0757C88.0109 11.0757 86.5256 11.3341 85.1546 11.8899C83.7709 12.4326 82.5649 13.2597 81.524 14.3583C80.4703 15.4438 79.6452 16.8009 79.0486 18.4163C78.4519 20.0318 78.1345 21.9186 78.1218 24.0511C78.1218 26.1835 78.4138 28.0704 79.0105 29.6988C79.5944 31.3272 80.4069 32.6842 81.4605 33.7956C82.5014 34.8941 83.7074 35.7342 85.0784 36.3028C86.4494 36.8585 87.9347 37.1557 89.5088 37.1557C90.6259 37.1557 91.5907 37.0911 92.4412 36.9748C93.2791 36.8456 94.028 36.6646 94.6755 36.4191C95.3356 36.1735 95.9449 35.8505 96.4908 35.4886L96.4781 35.4627ZM121.232 24.2062C121.232 22.3323 120.978 20.6005 120.458 19.0108C119.938 17.4341 119.176 16.0513 118.16 14.8752C117.157 13.6992 115.913 12.7945 114.453 12.1483C112.994 11.5022 111.331 11.1532 109.452 11.1403C107.573 11.1403 105.91 11.4633 104.45 12.0966C102.978 12.7428 101.734 13.6346 100.718 14.7977C99.7025 15.9608 98.9154 17.3307 98.3949 18.9074C97.8618 20.4971 97.5825 22.2159 97.5698 24.1028C97.5698 25.9767 97.8237 27.7085 98.3442 29.2982C98.8519 30.8878 99.6263 32.2706 100.642 33.4466C101.645 34.6227 102.889 35.5532 104.349 36.1994C105.809 36.8585 107.471 37.1945 109.35 37.2203C111.229 37.2203 112.892 36.8973 114.352 36.2511C115.824 35.6178 117.069 34.7002 118.084 33.5242C119.112 32.361 119.887 30.9782 120.42 29.3886C120.94 27.8119 121.232 26.0801 121.232 24.1933V24.2062ZM112.435 24.0769C112.435 26.1447 112.156 27.6568 111.635 28.639C111.115 29.6083 110.366 30.0735 109.376 30.0606C108.398 30.0606 107.649 29.5825 107.129 28.6132C106.608 27.631 106.367 26.1189 106.367 24.0511C106.38 21.9833 106.646 20.4712 107.167 19.489C107.687 18.5197 108.436 18.0416 109.426 18.0545C110.404 18.0545 111.153 18.5327 111.673 19.502C112.194 20.4842 112.448 21.9962 112.435 24.064V24.0769Z" fill="white"/>
<path d="M138.299 12.5382L138.191 38.1523L146.817 38.1916L146.924 12.5775L138.299 12.5382Z" fill="white"/>
<path d="M142.59 0C140.098 0 138.079 2.08001 138.066 4.68011C138.066 7.28021 140.06 9.40034 142.552 9.40034C145.044 9.40034 147.063 7.32025 147.076 4.72015C147.076 2.12005 145.082 0.0133338 142.59 0Z" fill="white"/>
<path d="M161.217 20.0395C161.779 19.5328 162.482 19.2794 163.338 19.2794C163.913 19.2794 164.45 19.3595 164.935 19.4928C165.434 19.6395 165.855 19.8528 166.201 20.1462L168.91 13.5993C168.36 13.2126 167.747 12.8925 167.095 12.6258C166.443 12.3592 165.689 12.1591 164.846 12.0258C163.99 11.8925 163.019 11.8125 161.894 11.8125C160.309 11.8125 158.827 12.0792 157.447 12.6525C156.067 13.2126 154.84 14.0659 153.792 15.1859C152.731 16.306 151.901 17.706 151.3 19.3728C150.687 21.0395 150.38 22.973 150.367 25.173C150.367 27.3731 150.661 29.3065 151.249 30.9866C151.837 32.6666 152.655 34.0667 153.703 35.2C154.75 36.3334 155.952 37.2001 157.332 37.7868C158.712 38.3602 160.194 38.6669 161.779 38.6669C162.903 38.6669 163.875 38.6002 164.731 38.4668C165.574 38.3335 166.328 38.1468 166.98 37.8935C167.645 37.6402 168.245 37.3202 168.807 36.9335L166.149 30.1198C165.792 30.3999 165.383 30.6132 164.884 30.7599C164.386 30.8933 163.862 30.9732 163.287 30.9599C162.495 30.9599 161.817 30.6799 161.255 30.1732C160.693 29.6665 160.258 28.9732 159.977 28.0932C159.683 27.2131 159.53 26.2131 159.53 25.093C159.53 23.973 159.67 22.9729 159.952 22.1062C160.245 21.2262 160.654 20.5328 161.217 20.0395Z" fill="white"/>
<path d="M185.975 19.3349L186.001 12.6281H182.103L182.129 4.81445L173.529 7.22788L173.503 12.588H170.973L170.947 19.2816H173.401C173.401 19.2816 173.452 19.3483 173.478 19.375L173.439 27.4286C173.439 31.1887 173.708 34.6556 175.343 36.709C177.58 39.2291 182.87 39.0824 185.86 37.749C185.86 35.3089 185.886 32.8688 185.886 30.4287C185.324 30.5221 183.087 31.1221 182.385 30.2421C182.116 29.9221 182.065 28.8287 182.027 27.3886L182.065 19.3217H185.963L185.975 19.3349Z" fill="white"/>
</svg>
